HIERARCHY
ROOT Hips
{
	OFFSET -3.958830 18.904000 13.208200
	CHANNELS 6 Xposition Yposition Zposition Zrotation Yrotation Xrotation 
	JOINT LHipJoint
	{
		OFFSET 0.000000 0.000000 0.000000
		CHANNELS 3 Zrotation Yrotation Xrotation
		JOINT LeftUpLeg
		{
			OFFSET 1.800000 -1.400000 0.085000
			CHANNELS 3 Zrotation Yrotation Xrotation
			JOINT LeftLeg
			{
				OFFSET 2.215000 -6.000000 0.000000
				CHANNELS 3 Zrotation Yrotation Xrotation
				JOINT LeftFoot
				{
					OFFSET 2.500000 -6.900000 0.000000
					CHANNELS 3 Zrotation Yrotation Xrotation
					JOINT LeftToeBase
					{
						OFFSET 0.200000 -0.500000 1.950000
						CHANNELS 3 Zrotation Yrotation Xrotation
						End Site
						{
							OFFSET 0.000000 0.000000 0.000000
						}
					}
				}
			}
		}
	}
	JOINT RHipJoint
	{
		OFFSET 0.000000 0.000000 0.000000
		CHANNELS 3 Zrotation Yrotation Xrotation
		JOINT RightUpLeg
		{
			OFFSET -1.800000 -1.400000 0.085000
			CHANNELS 3 Zrotation Yrotation Xrotation
			JOINT RightLeg
			{
				OFFSET -2.215000 -6.000000 0.000000
				CHANNELS 3 Zrotation Yrotation Xrotation
				JOINT RightFoot
				{
					OFFSET -2.500000 -6.900000 0.000000
					CHANNELS 3 Zrotation Yrotation Xrotation
					JOINT RightToeBase
					{
						OFFSET -0.200000 -0.500000 1.950000
						CHANNELS 3 Zrotation Yrotation Xrotation
						End Site
						{
							OFFSET 0.000000 0.000000 0.000000
						}
					}
				}
			}
		}
	}
	JOINT LowerBack
	{
		OFFSET 0.000000 0.000000 0.000000
		CHANNELS 3 Zrotation Yrotation Xrotation
		JOINT Spine
		{
			OFFSET -0.087000 1.940000 -0.288900
			CHANNELS 3 Zrotation Yrotation Xrotation
			JOINT Spine1
			{
				OFFSET 0.000000 1.950000 0.060000
				CHANNELS 3 Zrotation Yrotation Xrotation
				JOINT Neck
				{
					OFFSET 0.000000 0.000000 0.000000
					CHANNELS 3 Zrotation Yrotation Xrotation
					JOINT Neck1
					{
						OFFSET 0.000000 1.600000 0.340000
						CHANNELS 3 Zrotation Yrotation Xrotation
						JOINT Head
						{
							OFFSET 0.000000 1.667000 -0.240000
							CHANNELS 3 Zrotation Yrotation Xrotation
							End Site
							{
								OFFSET 0.000000 0.000000 0.000000
							}
						}
					}
				}
				JOINT LeftShoulder
				{
					OFFSET 0.000000 0.000000 0.000000
					CHANNELS 3 Zrotation Yrotation Xrotation
					JOINT LeftArm
					{
						OFFSET 2.700000 1.550000 -0.730000
						CHANNELS 3 Zrotation Yrotation Xrotation
						JOINT LeftForeArm
						{
							OFFSET 5.450000 0.000000 0.000000
							CHANNELS 3 Zrotation Yrotation Xrotation
							JOINT LeftHand
							{
								OFFSET 3.450000 0.000000 0.000000
								CHANNELS 3 Zrotation Yrotation Xrotation
								JOINT LeftHandIndex1
								{
									OFFSET 0.750000 0.000000 0.000000
									CHANNELS 3 Zrotation Yrotation Xrotation
									End Site
									{
										OFFSET 0.000000 0.000000 0.000000
									}
								}
							}
						}
					}
				}
				JOINT RightShoulder
				{
					OFFSET 0.000000 0.000000 0.000000
					CHANNELS 3 Zrotation Yrotation Xrotation
					JOINT RightArm
					{
						OFFSET -2.700000 1.550000 -0.730000
						CHANNELS 3 Zrotation Yrotation Xrotation
						JOINT RightForeArm
						{
							OFFSET -5.450000 0.000000 0.000000
							CHANNELS 3 Zrotation Yrotation Xrotation
							JOINT RightHand
							{
								OFFSET -3.450000 0.000000 0.000000
								CHANNELS 3 Zrotation Yrotation Xrotation
								JOINT RightHandIndex1
								{
									OFFSET -0.750000 0.000000 0.000000
									CHANNELS 3 Zrotation Yrotation Xrotation
									End Site
									{
										OFFSET 0.000000 0.000000 0.000000
									}
								}
							}
						}
					}
				}
			}
		}
	}
}
MOTION
Frames: 12
Frame Time: 0.016667
0.823080 17.297790 -3.205880 1.630425 29.893534 -0.688206 -14.945071 12.007464 2.573182 3.860268 -1.832756 -14.924000 -1.971552 3.048106 4.474643 -0.142240 2.456861 3.785733 -0.063430 -0.162160 -0.132720 18.488171 -12.285571 2.534943 -11.788538 -0.619305 -6.121630 3.942384 -4.794862 9.973248 -0.045273 -4.207696 2.957877 -0.043590 0.175940 0.043790 -5.021078 2.730083 -6.797266 9.137946 7.047953 1.754142 0.012982 6.860112 7.644441 2.156042 3.375727 -8.674173 4.747826 -16.918821 34.033153 -3.098500 -17.953120 5.515790 -24.194273 -7.400298 5.056289 -63.484814 -4.525066 -6.193913 -22.138196 -36.482260 4.447795 -3.735333 3.202375 -0.167310 0.119520 -0.213610 0.049870 20.209394 9.481857 5.132921 46.046966 8.522001 0.701340 0.768828 6.983022 -0.274256 2.772437 -1.415283 0.000060 -0.003400 0.056250 0.105010 
0.825950 17.301650 -3.225090 1.743474 30.012979 -0.648872 -14.946232 12.002987 2.574479 3.687581 -1.867212 -15.192622 -1.888740 3.052299 4.810166 -0.153608 2.434082 3.788290 -0.051100 -0.145020 -0.123690 18.483886 -12.310728 2.532590 -11.778079 -0.573632 -6.329346 3.867443 -4.780820 10.156519 -0.042243 -4.193108 2.958124 -0.031420 0.172840 0.047830 -5.023290 2.787051 -6.789440 9.167676 6.947271 1.986848 -0.020031 6.793088 7.830807 2.379713 3.469027 -8.646896 5.059471 -16.982201 33.750208 -3.140140 -17.849110 5.066250 -24.254958 -7.113513 5.170024 -63.946977 -4.261356 -6.602930 -21.434966 -38.393254 4.461423 -3.725184 3.210923 -0.169640 0.121080 -0.209640 0.050000 19.861828 9.249694 4.888482 44.981756 9.607387 0.627160 -0.462939 9.027133 -0.440319 2.744429 -1.422609 0.004070 -0.001720 0.052570 0.104190 
0.831560 17.295450 -3.245310 2.007789 30.040706 -0.616389 -14.948235 12.001929 2.574127 3.401823 -1.899524 -15.513435 -1.990570 3.132677 5.507981 -0.170668 2.431126 3.785227 -0.041760 -0.130060 -0.120520 18.478610 -12.343208 2.524894 -11.842322 -0.509872 -6.352518 3.629357 -4.750602 10.366770 -0.040983 -4.191593 2.958309 -0.017410 0.179450 0.048330 -5.019820 2.847332 -6.767679 9.003940 6.545610 2.175249 -0.035336 6.423174 8.269973 2.659945 3.382454 -8.613949 5.169281 -16.369130 33.886575 -3.016230 -17.219020 4.584140 -23.501014 -6.417698 5.498398 -65.136281 -3.378910 -7.481300 -20.499561 -40.969829 4.377284 -3.706986 3.221971 -0.166640 0.126010 -0.209110 0.053240 18.683924 8.786152 4.246573 44.024719 12.366099 0.306093 -4.470344 13.334186 -1.063566 2.684223 -1.440002 -0.001050 0.008400 0.052670 0.101940 
0.850850 17.313230 -3.263160 2.206062 29.881969 -0.802716 -14.951975 12.038166 2.593085 3.293137 -1.867658 -15.495520 -2.358836 3.257172 5.927891 -0.183643 2.465059 3.764546 -0.028350 -0.115210 -0.109150 18.463877 -12.352435 2.518114 -11.970362 -0.443725 -6.125222 3.551483 -4.786903 10.731549 -0.050814 -4.203847 2.951437 -0.005810 0.172160 0.043840 -5.003971 2.794893 -6.793616 9.254550 5.978740 2.544378 0.134356 5.872125 8.315734 2.938710 2.934301 -8.459232 4.525996 -15.210348 35.112801 -2.905400 -16.336770 3.911380 -24.134438 -5.984842 5.754349 -65.273923 -1.927534 -8.436392 -18.906176 -41.410705 3.705148 -3.682115 3.203570 -0.145370 0.115760 -0.198870 0.051780 18.892919 8.900696 3.625856 41.653569 15.111598 -0.920377 -11.090378 18.151705 -2.438202 2.614135 -1.462503 -0.008470 0.019510 0.052980 0.092490 
0.870300 17.326580 -3.281860 2.525793 29.975235 -0.903003 -14.966545 12.065814 2.604174 3.131699 -1.859171 -15.476648 -2.727054 3.398961 6.486869 -0.200930 2.507632 3.743298 -0.003720 -0.082000 -0.092180 18.441633 -12.358899 2.499404 -12.333449 -0.362534 -6.078694 3.432134 -4.797448 11.050384 -0.056520 -4.213885 2.941697 0.021940 0.168450 0.039730 -4.961275 2.749873 -6.792939 9.120416 5.266801 2.866092 0.620898 5.134582 8.697328 3.184933 2.559148 -8.283902 4.157257 -14.089504 35.670446 -2.886570 -15.314950 2.888400 -24.089901 -5.584429 6.155151 -65.880581 -0.813213 -9.184473 -18.475184 -42.944793 3.582766 -3.658041 3.209995 -0.133420 0.111860 -0.191100 0.054870 18.586986 9.031394 2.758855 40.213568 18.768020 -2.386154 -20.595505 23.360182 -5.151434 2.525326 -1.506276 -0.015920 0.035340 0.047000 0.084580 
0.889690 17.339550 -3.303290 2.641102 30.140556 -1.206674 -14.974283 12.086620 2.612908 3.232056 -1.830334 -15.434331 -3.359992 3.595654 6.991339 -0.205005 2.575768 3.711041 0.027950 -0.040160 -0.072860 18.426704 -12.350097 2.495608 -12.630956 -0.312660 -5.863756 3.620593 -4.868444 11.253947 -0.069226 -4.255148 2.920592 0.051860 0.158290 0.042140 -4.948541 2.695540 -6.817725 9.397620 4.592961 3.216994 1.142229 4.423284 9.074632 3.441508 1.891928 -8.065929 3.188363 -13.173626 36.459993 -3.476730 -14.570590 2.066800 -24.730423 -5.522023 6.475622 -65.859522 0.006999 -9.701824 -17.933159 -44.042250 3.390801 -3.636058 3.225098 -0.132450 0.108870 -0.182380 0.060220 18.934869 9.773482 2.035550 38.054674 22.337665 -3.621339 -31.421542 26.198879 -8.656192 2.468494 -1.556577 -0.011430 0.041220 0.035620 0.081490 
0.911830 17.348680 -3.319370 2.721981 30.362880 -1.565318 -14.969779 12.049801 2.614291 3.363483 -1.783644 -15.176603 -4.108206 3.771199 7.134486 -0.205626 2.651967 3.682147 0.053590 -0.004780 -0.063260 18.429930 -12.361419 2.500012 -13.008430 -0.282391 -5.518640 4.029753 -5.006755 11.398222 -0.084560 -4.337962 2.887766 0.080110 0.156490 0.042890 -4.982779 2.780567 -6.839810 9.834780 4.364150 3.451230 1.429141 4.163130 9.870949 3.867603 1.457828 -8.168258 2.652362 -12.873435 36.912104 -3.903380 -14.523090 1.348200 -24.511516 -5.888906 6.812976 -65.869024 0.142589 -9.831740 -17.891822 -44.975530 3.382676 -3.621997 3.245578 -0.136890 0.108840 -0.180550 0.067330 18.085440 10.769241 1.770484 35.256478 25.373802 -3.670869 -37.938383 26.621227 -10.777197 2.444201 -1.592142 -0.008700 0.051570 0.028440 0.083740 
0.920800 17.354900 -3.332110 2.849991 30.488069 -1.802539 -14.971747 12.026806 2.630425 3.629799 -1.735320 -15.014427 -4.944118 3.955866 7.160929 -0.191991 2.733495 3.653929 0.063440 0.011820 -0.065620 18.421203 -12.369156 2.502153 -13.352714 -0.231461 -5.306989 4.395094 -5.138003 11.658849 -0.091190 -4.404835 2.863629 0.092690 0.159240 0.042750 -4.979932 2.829249 -6.884526 10.079306 4.361990 3.750891 1.754937 4.152886 10.754425 4.223272 1.016194 -8.647062 1.997499 -12.695801 37.476046 -4.287500 -14.684390 1.135100 -23.758541 -6.996522 7.364615 -65.883170 0.041761 -9.925523 -18.435390 -45.659098 3.514942 -3.608311 3.272328 -0.144000 0.109650 -0.181730 0.074060 16.796546 12.528493 1.906035 32.033018 27.862323 -3.689533 -42.729488 23.130236 -11.380192 2.486850 -1.673736 -0.005560 0.058340 0.025450 0.090320 
0.927720 17.359300 -3.341910 2.949613 30.519062 -2.080552 -14.973663 12.015108 2.639934 4.095025 -1.647353 -14.764615 -5.864562 4.178712 7.203086 -0.169400 2.840074 3.617600 0.070060 0.025300 -0.076820 18.412250 -12.362343 2.507266 -13.730070 -0.180802 -5.110949 4.823357 -5.267837 11.832702 -0.096508 -4.467342 2.841940 0.102040 0.165590 0.039230 -4.971546 2.838741 -6.934403 10.391653 4.477617 4.138968 2.063810 4.291004 11.539459 4.496953 0.448511 -8.974441 1.002328 -12.654864 38.046305 -4.275590 -15.295720 0.829280 -23.303353 -7.990086 7.729366 -65.503018 -0.357266 -9.687412 -19.266953 -45.867888 3.764506 -3.596839 3.294102 -0.151460 0.106060 -0.185480 0.082690 15.942296 14.251753 2.057197 28.395311 29.533671 -4.123670 -46.454184 20.751764 -11.764929 2.519492 -1.735391 -0.001830 0.067640 0.024850 0.102190 
0.932820 17.363360 -3.352480 3.052087 30.661227 -2.223386 -14.971933 11.991915 2.651566 4.470743 -1.582701 -14.502262 -6.661690 4.341262 7.041916 -0.151526 2.933193 3.589988 0.072400 0.032350 -0.089510 18.408808 -12.336081 2.521575 -14.319857 -0.109866 -5.008414 5.551953 -5.448924 11.853215 -0.100667 -4.542039 2.816402 0.109520 0.177250 0.033150 -4.978275 2.832751 -6.993172 10.805023 4.533490 4.504733 2.222288 4.364609 12.058765 4.674605 -0.057875 -9.122904 0.111478 -12.539817 38.245193 -4.029260 -15.795500 0.471610 -23.552734 -8.913674 8.014405 -64.770490 -0.627913 -9.502323 -19.428279 -45.800832 3.767444 -3.589914 3.301798 -0.156600 0.104760 -0.192820 0.090760 15.919270 15.821153 2.150749 25.523108 30.651515 -4.848542 -50.970835 19.829350 -12.729522 2.527043 -1.776588 -0.004070 0.080560 0.026530 0.111980 
0.932820 17.362580 -3.366140 3.056854 30.512310 -2.444751 -14.972254 11.995235 2.673169 4.870287 -1.533382 -14.406206 -7.313485 4.478689 6.931520 -0.130883 3.013363 3.566261 0.071650 0.033910 -0.103670 18.399392 -12.308547 2.530524 -14.728724 -0.033119 -5.035162 6.038707 -5.566457 11.959678 -0.098830 -4.583390 2.803050 0.111330 0.190130 0.030230 -4.964913 2.777880 -7.058333 11.173253 4.443124 5.002833 2.297430 4.327720 12.489884 4.876470 -0.612348 -9.247033 -0.849188 -12.223284 38.615411 -3.763510 -16.148350 0.330630 -23.891742 -9.802983 8.311069 -64.148338 -0.733119 -9.466742 -19.543767 -45.470303 3.684414 -3.584326 3.309270 -0.162890 0.104690 -0.199970 0.099540 15.937948 17.391787 2.169676 22.656358 31.689939 -5.407574 -54.189258 19.737936 -13.590319 2.528660 -1.791026 -0.004160 0.088970 0.028210 0.122660 
0.940460 17.363150 -3.373440 3.153826 30.819535 -2.565225 -14.975377 11.988722 2.683930 5.069205 -1.508039 -14.324675 -7.743330 4.583089 6.971790 -0.119652 3.063382 3.545073 0.079070 0.045410 -0.104180 18.389698 -12.300402 2.535003 -15.201932 0.027000 -4.918840 6.504414 -5.727966 12.195171 -0.106758 -4.649604 2.774540 0.118000 0.187590 0.031000 -4.966287 2.771657 -7.096500 11.440054 4.349475 5.331875 2.154277 4.262288 12.779196 5.156082 -0.794598 -9.320638 -1.093951 -12.121021 38.561318 -3.622490 -16.268580 -0.047930 -24.185845 -10.373222 8.494354 -63.527887 -0.529624 -9.520034 -20.202919 -44.706611 3.771904 -3.580766 3.318164 -0.165250 0.101050 -0.198340 0.101410 15.734202 18.269123 2.179609 20.754599 32.243514 -5.733953 -57.435199 20.920634 -14.997158 2.509660 -1.785547 0.000600 0.088540 0.026140 0.126020 
